<svg xmlns="http://www.w3.org/2000/svg" width="122" height="34" viewBox="0 0 122 34">
    <defs>
        <linearGradient id="a" x1="5.322%" x2="94.678%" y1="94.678%" y2="5.322%">
            <stop offset="0%" stop-color="#6068C9"/>
            <stop offset="100%" stop-color="#00C8EA"/>
        </linearGradient>
    </defs>
    <g fill="none" fill-rule="nonzero">
        <g fill="#393D48">
            <path d="M52.396 13.407h2.72v12.389h-2.72zM55.3 10.336c0 .847-.7 1.525-1.55 1.525-.86 0-1.548-.688-1.548-1.525 0-.847.699-1.525 1.549-1.525.86 0 1.549.689 1.549 1.525zM66.088 21.815a3.548 3.548 0 0 1-2.753 1.302c-1.947 0-3.54-1.567-3.54-3.484 0-1.916 1.593-3.484 3.54-3.484 1.065 0 2.011.466 2.667 1.197l2.28-1.493a6.305 6.305 0 0 0-4.947-2.393c-3.464 0-6.271 2.764-6.271 6.173 0 3.41 2.807 6.174 6.27 6.174a6.301 6.301 0 0 0 5.035-2.5l-2.28-1.492zM95.605 13.47h2.72v12.39h-2.72zM98.52 10.4c0 .847-.7 1.524-1.55 1.524-.86 0-1.549-.688-1.549-1.524 0-.848.7-1.525 1.55-1.525.849 0 1.548.688 1.548 1.525zM91.538 21.815a3.548 3.548 0 0 1-2.753 1.302c-1.947 0-3.54-1.567-3.54-3.484 0-1.916 1.593-3.484 3.54-3.484 1.064 0 2.011.466 2.667 1.197l2.28-1.493a6.305 6.305 0 0 0-4.947-2.393c-3.464 0-6.271 2.764-6.271 6.173 0 3.41 2.807 6.174 6.27 6.174a6.301 6.301 0 0 0 5.035-2.5l-2.28-1.492zM39.359 7.255h2.72V25.86h-2.72zM70.434 7.255h2.72V25.86h-2.72zM106.318 23.17c-1.668 0-2.41-.625-2.41-2.033v-4.988h4.292V13.47h-4.292V7.255h-2.732v13.882c0 2.277 1.345 4.723 5.142 4.723.903 0 1.817-.202 2.538-.403V22.62c-.484.18-1.581.551-2.538.551zM115.945 21.486l-3.174-8.016h-2.915l4.626 11.68c-.86 1.99-2.657 3.41-4.84 3.812l.494 2.637c3.184-.582 5.787-2.7 6.97-5.665l4.938-12.474h-2.926l-3.173 8.026zM46.05 19.59l4.41-6.12h-3.335l-4.4 6.12 4.507 6.27h3.335zM77.135 19.59l4.4-6.12H78.21l-4.41 6.12 4.518 6.27h3.334z"/>
        </g>
        <path fill="url(#a)" d="M27.452 33.164H6.097C2.73 33.164 0 30.464 0 27.137V6.027C0 2.7 2.731 0 6.097 0h21.355c3.366 0 6.097 2.7 6.097 6.027v21.11c0 3.327-2.731 6.027-6.097 6.027z"/>
        <path fill="#FFF" d="M11.008 6.736h2.621v18.655h-2.62V6.736zM18.022 19.1l4.519 6.292h-3.333l-4.53-6.292 4.411-6.144h3.344l-4.411 6.144z"/>
    </g>
</svg>
